<svg id="Layer_1" data-name="Layer 1" xmlns="http://www.w3.org/2000/svg" viewBox="0 0 600 158.54"><defs><style>.cls-1{fill:#fff;}.cls-2{fill:#f3a233;}.cls-3{fill:#e94150;}.cls-4{fill:#54af99;}</style></defs><title>logo_morphl (1)</title><path class="cls-1" d="M235.67,56.91q12.86,12.19,12.86,31.36T235.59,119.7Q222.64,132,204,132q-18.83,0-31.86-12.27t-13-31.44q0-19.17,13-31.36T204,44.72Q222.81,44.72,235.67,56.91Zm-12.36,52q8.24-8,8.24-20.6t-8.24-20.6a27.7,27.7,0,0,0-38.92,0q-8.16,8-8.16,20.6t8.16,20.6a27.7,27.7,0,0,0,38.92,0Z"/><path class="cls-1" d="M331.17,46.23,330,63a46.21,46.21,0,0,0-4.88-.17q-15.47,0-23.54,10t-8.07,27.66V130H276V46.57h17.49V64.39q11.43-18.83,31.78-18.83A20.71,20.71,0,0,1,331.17,46.23Z"/><path class="cls-1" d="M431.46,56.65q12.27,12.44,12.27,31.61,0,19.34-12.19,31.69a39.54,39.54,0,0,1-29.17,12.36q-18.83,0-30.26-11.94v38.17H354.63v-112h17.49v9.58q11.43-11.94,30.26-11.94Q419.19,44.21,431.46,56.65ZM419,109q7.74-7.82,7.73-20.76T419,67.5q-7.73-7.82-19.5-7.82a26.69,26.69,0,0,0-19.17,8q-8.24,8-8.24,20.6t8.24,20.6a26.69,26.69,0,0,0,19.17,8Q411.29,116.85,419,109Z"/><path class="cls-1" d="M536.88,54q9.25,9.84,9.25,25.47V130H528.47V83.05q0-10.26-5.46-16.48a18.21,18.21,0,0,0-14.38-6.22q-11.6,0-18.24,7.9t-6.64,23.2V130H466.26V8.91h17.49V56.82q10.59-12.61,28.92-12.61Q527.63,44.21,536.88,54Z"/><path class="cls-1" d="M573.87,130V8.91h17.49V130Z"/><polygon class="cls-1" points="36.04 23.71 36.04 76.82 16.07 92.83 16.07 7.63 36.04 23.71"/><polygon class="cls-1" points="16.07 96.92 36.04 80.91 36.04 129.84 16.07 129.84 16.07 96.92"/><polygon class="cls-2" points="108.03 129.84 128 129.84 128 45.64 108.03 61.73 108.03 129.84"/><polygon class="cls-1" points="135.62 5.21 36.04 85.01 16.07 101.02 4.59 110.22 2.57 107.73 16.07 96.92 36.04 80.91 133.63 2.72 135.62 5.21"/><polygon class="cls-3" points="127.6 17.54 76.19 58.64 76.19 80.08 127.6 38.98 127.6 17.54"/><circle class="cls-4" cx="50.86" cy="48.47" r="11.56"/></svg>