<svg xmlns="http://www.w3.org/2000/svg" viewBox="0 0 588.78 155.82"><defs><style>.cls-1{fill:#1e1e1e;}.cls-2{fill:#f3a233;}.cls-3{fill:#e94150;}.cls-4{fill:#54af99;}</style></defs><title>Asset 2</title><g id="Layer_2" data-name="Layer 2"><g id="Layer_1-2" data-name="Layer 1"><path class="cls-1" d="M233.1,54.19Q246,66.38,246,85.54T233,117q-12.95,12.27-31.61,12.27-18.83,0-31.86-12.27t-13-31.44q0-19.17,13-31.36T201.4,42Q220.24,42,233.1,54.19Zm-12.36,52q8.24-8,8.24-20.6t-8.24-20.6a27.7,27.7,0,0,0-38.92,0q-8.16,8-8.16,20.6t8.16,20.6a27.7,27.7,0,0,0,38.92,0Z"/><path class="cls-1" d="M328.6,43.51l-1.18,16.81a46.21,46.21,0,0,0-4.88-.17q-15.47,0-23.54,10t-8.07,27.66v29.42H273.45V43.85h17.49V61.67q11.43-18.83,31.78-18.83A20.71,20.71,0,0,1,328.6,43.51Z"/><path class="cls-1" d="M428.89,53.93q12.27,12.44,12.27,31.61,0,19.34-12.19,31.69a39.54,39.54,0,0,1-29.17,12.36q-18.83,0-30.26-11.94v38.17H352.05v-112h17.49v9.58Q381,41.49,399.8,41.49,416.62,41.49,428.89,53.93Zm-12.44,52.37q7.74-7.82,7.73-20.76t-7.73-20.76Q408.71,57,396.94,57a26.69,26.69,0,0,0-19.17,8q-8.24,8-8.24,20.6t8.24,20.6a26.69,26.69,0,0,0,19.17,8Q408.71,114.12,416.45,106.31Z"/><path class="cls-1" d="M534.3,51.33q9.25,9.84,9.25,25.47v50.44H525.9V80.33q0-10.26-5.46-16.48a18.21,18.21,0,0,0-14.38-6.22q-11.6,0-18.24,7.9t-6.64,23.2v38.5H463.69V6.18h17.49V54.1q10.59-12.61,28.92-12.61Q525.06,41.49,534.3,51.33Z"/><path class="cls-1" d="M571.29,127.24V6.18h17.49V127.24Z"/><polygon class="cls-1" points="33.47 20.99 33.47 74.1 13.5 90.11 13.5 4.91 33.47 20.99"/><polygon class="cls-1" points="13.5 94.19 33.47 78.19 33.47 127.12 13.5 127.12 13.5 94.19"/><polygon class="cls-2" points="105.45 127.12 125.42 127.12 125.42 42.92 105.45 59.01 105.45 127.12"/><polygon class="cls-1" points="133.05 2.49 33.47 82.29 13.5 98.3 2.01 107.5 0 105.01 13.5 94.19 33.47 78.19 131.05 0 133.05 2.49"/><polygon class="cls-3" points="125.03 14.82 73.61 55.92 73.61 77.36 125.03 36.26 125.03 14.82"/><circle class="cls-4" cx="48.29" cy="45.75" r="11.56"/></g></g></svg>