<svg xmlns="http://www.w3.org/2000/svg" viewBox="0 0 133.05 127.12"><defs><style>.cls-1{fill:#fff;}.cls-2{fill:#f3a233;}.cls-3{fill:#e94150;}.cls-4{fill:#54af99;}</style></defs><title>Asset 11</title><g id="Layer_2" data-name="Layer 2"><g id="Layer_1-2" data-name="Layer 1"><polygon class="cls-1" points="33.47 20.99 33.47 74.1 13.5 90.11 13.5 4.91 33.47 20.99"/><polygon class="cls-1" points="13.5 94.19 33.47 78.19 33.47 127.12 13.5 127.12 13.5 94.19"/><polygon class="cls-2" points="105.45 127.12 125.42 127.12 125.42 42.92 105.45 59.01 105.45 127.12"/><polygon class="cls-1" points="133.05 2.49 33.47 82.29 13.5 98.3 2.01 107.5 0 105.01 13.5 94.19 33.47 78.19 131.05 0 133.05 2.49"/><polygon class="cls-3" points="125.03 14.82 73.61 55.92 73.61 77.36 125.03 36.26 125.03 14.82"/><circle class="cls-4" cx="48.29" cy="45.75" r="11.56"/></g></g></svg>