<svg xmlns="http://www.w3.org/2000/svg" viewBox="0 0 589.01 562.77"><defs><style>.cls-1{fill:#fff;}</style></defs><title>Asset 2</title><g id="Layer_2" data-name="Layer 2"><g id="Layer_1-2" data-name="Layer 1"><polygon class="cls-1" points="148.17 92.93 148.17 328.02 59.77 398.89 59.77 21.72 148.17 92.93"/><polygon class="cls-1" points="59.77 417 148.17 346.13 148.17 562.77 59.77 562.77 59.77 417"/><polygon class="cls-1" points="466.85 562.77 555.26 562.77 555.26 190.01 466.85 261.23 466.85 562.77"/><polygon class="cls-1" points="589.01 11.04 148.17 364.31 59.77 435.18 8.91 475.91 0 464.88 59.77 417 148.17 346.13 580.16 0 589.01 11.04"/><polygon class="cls-1" points="553.49 65.61 325.88 247.56 325.88 342.45 553.49 160.52 553.49 65.61"/><path class="cls-1" d="M162.59,202.53a51.18,51.18,0,1,0,51.17-51.18A51.18,51.18,0,0,0,162.59,202.53Z"/></g></g></svg>